<mxfile host="app.diagrams.net" modified="2024-02-17T23:10:16.520Z" agent="Mozilla/5.0 (Windows NT 10.0; Win64; x64) AppleWebKit/537.36 (KHTML, like Gecko) Chrome/121.0.0.0 Safari/537.36" version="23.1.5" etag="zIWyYZAlybE8dUoubkap" type="github">
  <diagram name="PÃ¡gina-1" id="E0LMem79V5bjEwnQHNBg">
    <mxGraphModel>
      <root>
        <mxCell id="0" />
        <mxCell id="1" parent="0" />
      </root>
    </mxGraphModel>
  </diagram>
</mxfile>
